<?xml version="1.0" standalone="no"?>
<!DOCTYPE svg PUBLIC "-//W3C//DTD SVG 20010904//EN"
 "http://www.w3.org/TR/2001/REC-SVG-20010904/DTD/svg10.dtd">
<svg version="1.0" xmlns="http://www.w3.org/2000/svg"
 width="188.000000pt" height="268.000000pt" viewBox="0 0 188.000000 268.000000"
 preserveAspectRatio="xMidYMid meet">

<g transform="translate(0.000000,268.000000) scale(0.100000,-0.100000)"
fill="#D9D9D9" stroke="none">
<path d="M67 2613 c-4 -3 -7 -576 -7 -1273 l0 -1267 62 -4 c86 -6 1666 -5
1671 1 2 3 7 578 10 1277 l6 1273 -868 0 c-478 0 -871 -3 -874 -7z m1720
-1265 c-3 -687 -8 -1252 -11 -1255 -3 -3 -220 -5 -483 -4 -263 0 -643 1 -846
1 l-367 0 0 1208 c1 664 4 1228 7 1255 l6 47 849 0 850 -1 -5 -1251z"/>
<path d="M117 2358 c-4 -112 -7 -660 -7 -1220 l0 -1016 22 6 c20 5 20 7 5 10
-18 4 -18 43 -17 995 1 546 4 1088 7 1205 l6 212 806 -2 806 -3 -3 -315 c-1
-173 -2 -714 -2 -1202 l0 -888 -82 -1 c-46 -1 -126 -5 -178 -9 -88 -6 -83 -7
75 -8 94 -1 175 2 181 6 8 5 13 349 18 1220 l6 1212 -818 0 -819 0 -6 -202z"/>
<path d="M158 2352 c-3 -97 -5 -630 -7 -1184 l-2 -1008 781 0 780 0 1 828 c0
455 3 987 5 1182 l4 355 -779 2 -779 3 -4 -178z m589 107 c-7 -11 -19 -19 -29
-19 -22 0 -28 31 -10 52 12 15 15 15 32 1 15 -13 16 -20 7 -34z m438 13 c-3
-8 -5 -17 -5 -22 0 -4 -11 -7 -25 -7 -14 0 -25 3 -25 7 0 5 -3 15 -6 24 -4 11
-1 16 10 16 9 0 16 5 16 10 0 6 8 5 20 -2 11 -7 18 -19 15 -26z m145 0 c-5 -2
-10 -10 -10 -18 0 -8 -10 -14 -23 -14 -28 0 -34 37 -10 55 13 10 20 9 35 -4
10 -9 14 -17 8 -19z m-1022 20 c16 -11 3 -47 -18 -47 -19 0 -30 26 -18 43 12
14 18 15 36 4z m142 -2 c26 -14 15 -47 -15 -47 -26 0 -42 36 -22 49 15 10 15
10 37 -2z m147 2 c21 -13 4 -49 -23 -49 -38 0 -32 51 6 56 3 0 10 -3 17 -7z
m290 -3 c18 -18 4 -46 -22 -46 -28 0 -38 27 -15 44 19 15 23 16 37 2z m148 -2
c13 -10 15 -16 6 -21 -6 -4 -9 -11 -6 -15 2 -5 -6 -8 -19 -8 -27 0 -41 28 -23
46 14 14 19 14 42 -2z m432 2 c17 -17 4 -46 -22 -46 -29 0 -40 33 -17 47 22
12 26 12 39 -1z m140 0 c17 -17 4 -46 -22 -46 -16 0 -22 4 -18 13 3 8 -1 14
-8 14 -8 0 -5 6 7 15 23 18 27 18 41 4z m-1378 -89 c4 0 7 -9 7 -20 0 -11 -3
-20 -7 -20 -4 0 -14 -3 -22 -6 -8 -3 -17 2 -20 10 -9 23 3 48 20 42 8 -3 18
-6 22 -6z m1379 -1057 l-3 -1068 -672 -3 -673 -2 0 1070 0 1070 675 0 675 0
-2 -1067z m82 1057 c4 0 8 -11 8 -24 0 -17 -5 -23 -14 -19 -8 3 -14 -1 -14 -8
0 -8 -7 -5 -18 7 -15 15 -16 23 -8 37 6 9 17 15 24 12 8 -3 17 -5 22 -5z
m-1455 -155 c0 -17 -7 -25 -22 -28 -15 -3 -23 1 -23 9 0 8 -6 14 -12 15 -10 0
-10 2 0 6 6 2 12 10 12 17 0 8 9 12 23 9 15 -3 22 -11 22 -28z m1455 10 c6 4
9 -3 7 -17 -3 -31 -35 -44 -53 -21 -7 10 -8 20 -3 21 5 2 9 11 9 19 0 12 3 13
15 3 8 -6 19 -9 25 -5z m-1460 -153 c0 -14 -3 -22 -7 -19 -3 4 -12 2 -20 -4
-10 -9 -13 -8 -13 5 0 9 -6 16 -12 17 -10 0 -10 2 0 6 6 2 12 11 12 18 0 8 7
11 20 8 13 -4 20 -14 20 -31z m1455 14 c8 3 13 -4 13 -20 0 -32 -31 -40 -54
-15 -10 11 -12 19 -6 19 7 0 12 8 12 17 0 13 3 14 11 6 6 -6 17 -9 24 -7z
m-1455 -154 c0 -14 -3 -22 -7 -19 -3 4 -12 2 -20 -4 -10 -9 -13 -8 -13 5 0 9
-6 16 -12 17 -10 0 -10 2 0 6 6 2 12 11 12 18 0 8 7 11 20 8 13 -4 20 -14 20
-31z m1466 -7 c2 -30 -34 -42 -52 -17 -7 9 -8 19 -3 20 5 2 9 9 9 16 0 25 45
6 46 -19z m-1461 -123 c0 -10 -3 -17 -6 -17 -3 0 -13 -6 -22 -14 -15 -12 -17
-11 -17 3 0 9 -5 16 -10 16 -6 0 -6 7 1 18 14 23 56 18 54 -6z m1463 -18 c0
-13 -4 -24 -8 -24 -5 0 -15 -3 -24 -6 -11 -4 -16 -1 -16 10 0 9 -6 16 -12 17
-10 0 -10 2 0 6 6 2 12 10 12 17 0 9 9 12 24 9 17 -4 24 -12 24 -29z m-1466
-130 c-2 -14 -7 -22 -10 -20 -3 3 -11 1 -19 -5 -10 -9 -13 -8 -13 5 0 9 -5 16
-10 16 -6 0 -6 7 1 18 8 12 20 17 34 14 17 -3 21 -9 17 -28z m1464 -9 c1 -17
-5 -24 -22 -28 -16 -3 -24 0 -24 9 0 8 -5 14 -10 14 -6 0 -6 7 1 18 16 26 54
17 55 -13z m-1464 -131 c-2 -14 -7 -22 -10 -20 -3 3 -11 1 -19 -5 -10 -9 -13
-8 -13 5 0 9 -5 16 -10 16 -6 0 -6 7 1 18 8 12 20 17 34 14 17 -3 21 -9 17
-28z m1464 -10 c1 -17 -2 -24 -11 -20 -7 2 -18 -1 -24 -7 -8 -8 -11 -7 -11 6
0 9 -5 17 -10 17 -6 0 -6 7 1 18 17 27 54 17 55 -14z m-1466 -124 c0 -23 -27
-33 -44 -18 -10 9 -10 17 -3 29 13 21 47 13 47 -11z m1466 -9 c0 -10 -11 -22
-23 -28 -18 -9 -23 -8 -23 3 0 8 -5 14 -10 14 -6 0 -6 7 1 18 15 23 55 18 55
-7z m-1466 -130 c0 -9 -9 -22 -20 -29 -17 -10 -20 -10 -20 3 0 8 -5 15 -10 15
-6 0 -6 7 1 19 14 22 49 17 49 -8z m1466 -9 c-1 -23 -34 -35 -50 -20 -9 9 -10
17 -3 29 13 20 55 13 53 -9z m-1466 -131 c0 -9 -9 -22 -20 -29 -17 -10 -20
-10 -20 3 0 8 -5 15 -10 15 -6 0 -6 7 1 19 14 22 49 17 49 -8z m1459 9 c17 0
4 -38 -16 -47 -18 -9 -23 -8 -23 3 0 8 -5 14 -10 14 -6 0 -5 8 2 20 7 11 19
18 26 15 8 -3 17 -5 21 -5z m-1459 -149 c0 -9 -9 -22 -20 -29 -17 -10 -20 -10
-20 3 0 8 -5 15 -10 15 -6 0 -6 7 1 19 14 22 49 17 49 -8z m1466 -9 c-1 -23
-34 -35 -50 -20 -9 9 -10 17 -3 29 13 20 55 13 53 -9z m-1466 -131 c0 -9 -9
-22 -20 -29 -17 -10 -20 -10 -20 3 0 8 -5 15 -10 15 -6 0 -6 7 1 19 14 22 49
17 49 -8z m1463 -7 c5 -28 -29 -40 -50 -19 -12 12 -12 17 -1 29 19 21 46 15
51 -10z m-1463 -134 c0 -23 -27 -33 -44 -18 -10 9 -10 17 -3 29 13 21 47 13
47 -11z m1453 17 c4 3 7 -5 7 -20 0 -30 -29 -41 -46 -18 -15 19 4 55 22 41 6
-6 14 -7 17 -3z m-1453 -157 c0 -23 -27 -33 -44 -18 -10 9 -10 17 -3 29 13 21
47 13 47 -11z m1452 16 c3 2 8 -6 10 -20 4 -18 0 -26 -15 -30 -21 -5 -55 26
-36 32 5 2 9 11 9 19 0 12 3 13 13 4 8 -6 16 -8 19 -5z m-1468 -132 c22 -9 20
-37 -4 -52 -17 -10 -20 -10 -20 3 0 8 -5 15 -10 15 -6 0 -5 8 2 20 7 11 14 20
15 20 1 0 8 -3 17 -6z m1482 -27 c-1 -27 -36 -39 -52 -18 -17 22 3 49 31 44
14 -3 21 -12 21 -26z m-1466 -137 c0 -23 -27 -33 -44 -18 -10 9 -10 17 -3 29
13 21 47 13 47 -11z m1462 -5 c-5 -28 -32 -37 -48 -16 -17 22 3 49 31 43 17
-3 21 -9 17 -27z m-1380 -87 c-6 -24 -49 -24 -54 0 -2 9 3 22 11 28 21 16 50
-3 43 -28z m132 30 c7 -7 11 -22 8 -33 -3 -17 -9 -21 -28 -17 -13 2 -21 8 -19
12 3 5 0 12 -5 15 -7 5 -5 12 7 21 22 17 21 17 37 2z m156 -24 c-6 -6 -7 -14
-3 -17 3 -4 -5 -7 -19 -7 -32 0 -45 28 -21 45 21 16 58 -2 43 -21z m142 -9
c-3 -17 -9 -21 -27 -17 -28 5 -37 32 -16 48 22 17 49 -3 43 -31z m142 1 c-8
-21 -40 -21 -48 0 -9 24 23 46 41 29 7 -8 10 -21 7 -29z m148 2 c-6 -25 -48
-24 -55 2 -3 13 0 20 9 20 8 0 14 5 14 10 0 6 7 6 19 -1 11 -7 16 -19 13 -31z
m144 22 c12 0 12 -4 2 -20 -7 -11 -20 -20 -29 -20 -25 0 -32 30 -12 46 10 7
20 8 21 3 2 -5 10 -9 18 -9z m146 -22 c-6 -24 -49 -24 -54 0 -2 9 3 22 11 28
21 16 50 -3 43 -28z m134 28 c19 -19 7 -46 -20 -46 -25 0 -31 25 -12 47 14 16
15 16 32 -1z m154 -22 c-6 -6 -7 -14 -3 -17 3 -4 -5 -7 -20 -7 -30 0 -41 29
-18 46 19 15 55 -4 41 -22z"/>
<path d="M280 2353 c-1 -26 -3 -501 -6 -1055 l-6 -1008 318 -1 c176 0 472 0
659 0 l340 0 3 1054 2 1055 -655 1 -655 2 0 -48z m173 -16 c31 -32 34 -39 12
-31 -21 9 -45 -14 -45 -42 0 -19 5 -24 25 -24 17 0 25 6 26 18 1 16 2 16 6 0
2 -10 12 -18 21 -19 11 0 12 -2 5 -6 -7 -2 -13 -14 -13 -26 l0 -21 -20 22
c-12 12 -25 22 -30 22 -13 0 0 -32 18 -47 14 -12 14 -13 -1 -13 -9 0 -21 -8
-26 -17 -9 -16 -10 -16 -11 5 0 14 -6 22 -17 23 -17 1 -17 2 0 6 22 6 22 42 1
50 -23 9 -49 -11 -48 -36 0 -14 -5 -20 -15 -19 -9 2 -19 -8 -25 -24 -12 -33 7
-60 38 -56 26 4 29 41 4 46 -10 2 -18 -2 -18 -8 0 -6 5 -8 10 -5 6 3 10 1 10
-4 0 -6 -7 -11 -15 -11 -18 0 -20 21 -3 38 7 7 17 8 30 1 19 -10 24 -44 8 -54
-6 -4 -9 -19 -8 -35 1 -16 -6 -37 -16 -49 -10 -11 -15 -25 -11 -31 4 -7 0 -10
-11 -8 -15 2 -19 -3 -19 -27 0 -24 4 -29 19 -27 10 2 15 -1 12 -7 -4 -6 -3
-19 3 -29 6 -11 6 -24 0 -33 -7 -11 -9 -9 -9 8 0 12 -4 25 -10 28 -5 3 -10 1
-10 -4 0 -6 -4 -11 -8 -11 -4 0 -7 24 -6 53 3 75 6 86 19 81 17 -7 37 21 33
48 -4 28 -43 33 -43 6 0 -10 5 -18 10 -17 6 1 9 5 8 10 -2 5 2 9 7 9 12 0 13
-27 1 -34 -5 -4 -16 -3 -25 0 -18 7 -21 39 -5 50 8 4 8 9 0 17 -16 16 -13 54
5 82 14 22 14 25 1 31 -11 4 -15 19 -14 50 1 93 88 134 150 71z m88 22 c15 -7
24 -7 35 1 20 18 46 4 42 -22 -3 -25 -29 -31 -36 -9 -3 10 0 12 12 8 17 -7 23
8 7 17 -13 8 -34 -21 -27 -39 3 -8 14 -15 24 -15 25 0 46 25 38 45 -7 20 0 19
24 -5 14 -14 16 -20 6 -20 -7 0 -19 -7 -26 -15 -7 -8 -25 -15 -41 -15 -16 0
-38 -6 -49 -12 -15 -10 -25 -10 -38 -2 -25 16 -22 48 6 52 15 2 22 -2 22 -12
0 -9 -5 -16 -11 -16 -5 0 -7 5 -4 10 3 6 1 10 -4 10 -14 0 -14 -27 0 -36 16
-9 43 21 36 40 -10 24 -36 31 -71 18 l-31 -11 24 19 c27 23 35 24 62 9z m194
1 c5 -8 11 -7 21 1 7 6 21 9 29 5 20 -7 20 -46 0 -46 -8 0 -15 5 -15 11 0 5 5
7 10 4 6 -3 10 -1 10 4 0 6 -7 11 -16 11 -10 0 -14 -7 -12 -22 3 -24 35 -35
65 -24 13 5 13 9 2 23 -12 14 -11 15 9 9 13 -5 22 -3 22 4 0 19 47 35 64 21
10 -8 16 -9 21 -1 10 16 40 12 59 -9 11 -12 25 -17 34 -14 14 5 14 3 -2 -15
-21 -25 -38 -29 -30 -8 5 13 -20 46 -35 46 -15 0 -33 -30 -27 -45 8 -21 36
-19 36 3 0 13 -2 14 -9 3 -5 -8 -11 -9 -15 -3 -8 13 10 26 24 17 6 -3 10 -15
10 -25 0 -17 -6 -20 -52 -17 -45 2 -53 5 -53 22 0 11 8 21 18 23 11 2 17 -3
16 -15 0 -10 -3 -13 -6 -5 -7 17 -23 15 -23 -3 0 -8 9 -15 20 -15 15 0 20 7
20 25 0 14 -7 28 -15 32 -18 6 -58 -26 -51 -42 2 -7 -1 -12 -7 -13 -7 -1 -28
-5 -48 -8 -23 -4 -39 -2 -44 6 -5 8 -11 8 -22 -1 -12 -11 -13 -9 -8 12 9 36
-17 56 -50 41 -14 -7 -25 -8 -25 -3 0 20 64 28 75 11z m388 -2 c4 -10 7 -10
18 0 16 15 55 16 64 1 4 -6 14 -8 22 -5 9 4 13 0 11 -12 -4 -24 10 -42 33 -42
22 0 34 22 25 45 -6 16 -36 10 -36 -7 0 -6 7 -7 16 -4 10 4 14 1 12 -6 -7 -21
-33 -15 -36 9 -4 25 31 41 53 23 10 -8 19 -8 33 -1 14 7 28 6 53 -7 33 -16 35
-16 50 3 14 16 19 17 32 7 10 -9 17 -10 22 -2 10 16 35 12 42 -7 4 -10 15 -24
25 -31 19 -14 25 -42 8 -42 -7 0 -7 -6 0 -20 8 -16 5 -25 -20 -50 -34 -35 -40
-37 -33 -12 5 22 -19 45 -44 40 -12 -2 -18 -12 -18 -28 0 -15 5 -24 13 -23 6
2 12 -2 12 -7 0 -5 -7 -10 -15 -10 -8 0 -16 -8 -16 -17 -1 -17 -2 -17 -6 0 -2
9 -14 18 -26 18 -16 1 -17 3 -6 6 25 6 32 43 8 43 -11 0 -19 -7 -20 -17 0 -14
-2 -15 -6 -3 -3 8 -12 21 -21 28 -14 11 -14 12 1 12 9 0 18 8 18 18 1 16 2 16
6 0 6 -23 49 -24 57 -2 3 8 1 25 -5 36 -8 15 -17 18 -37 13 -22 -5 -24 -4 -13
9 10 12 9 17 -9 26 -12 6 -31 10 -43 8 -31 -4 -32 -63 -2 -63 11 0 21 8 23 18
2 9 -2 17 -8 17 -6 0 -8 -4 -5 -10 3 -5 -1 -10 -10 -10 -9 0 -15 6 -12 13 2 6
12 12 23 12 14 0 19 -7 19 -25 0 -20 -6 -26 -28 -28 -16 -2 -29 2 -32 11 -4 8
-16 12 -34 9 -17 -2 -34 2 -44 12 -8 9 -24 16 -34 16 -13 0 -15 2 -5 9 10 6
10 10 -2 20 -21 18 -48 6 -68 -29 -14 -24 -24 -30 -52 -30 -19 0 -37 4 -41 9
-3 6 8 8 28 4 37 -6 64 15 53 43 -7 18 -27 15 -34 -6 -3 -9 1 -11 12 -7 10 4
15 3 11 -3 -9 -15 -35 -12 -35 3 0 29 44 50 53 25z m-803 -8 c0 -5 -2 -10 -4
-10 -3 0 -8 5 -11 10 -3 6 -1 10 4 10 6 0 11 -4 11 -10z m1250 6 c0 -3 -4 -8
-10 -11 -5 -3 -10 -1 -10 4 0 6 5 11 10 11 6 0 10 -2 10 -4z m-840 -37 c0 -6
-5 -7 -12 -3 -8 5 -9 1 -4 -12 6 -15 4 -16 -5 -7 -14 14 -4 47 11 38 5 -3 10
-11 10 -16z m445 -5 c0 -12 -8 -20 -22 -22 -26 -4 -28 1 -12 29 13 24 34 20
34 -7z m-417 -129 c-6 -13 -18 -27 -26 -30 -13 -5 -13 -3 1 13 21 23 22 46 2
62 -8 7 -15 20 -15 28 0 10 10 3 24 -17 20 -27 23 -37 14 -56z m377 41 c-19
-34 -19 -36 0 -55 21 -24 14 -28 -9 -5 -21 20 -20 50 2 79 24 33 29 21 7 -19z
m-303 -30 c-3 -12 -9 -26 -14 -33 -9 -11 -104 -44 -138 -47 -21 -3 -40 -15
-40 -27 0 -5 13 -3 30 6 16 8 42 15 57 15 88 0 153 45 153 107 0 28 3 34 12
25 17 -17 -6 -86 -38 -111 -14 -11 -42 -23 -63 -26 -103 -16 -115 -24 -27 -19
120 6 136 11 152 48 11 26 13 27 14 9 0 -25 -44 -63 -74 -63 -11 0 -28 -5 -36
-10 -11 -7 -6 -10 20 -10 20 0 46 7 58 16 12 8 22 11 22 5 0 -16 -35 -31 -77
-32 l-38 -1 31 -9 c38 -11 66 -39 39 -39 -14 0 -12 -4 9 -21 14 -11 31 -29 36
-39 19 -36 -7 -29 -51 13 -25 23 -54 48 -64 55 -19 12 -18 12 5 7 18 -3 16 0
-10 12 -19 9 -58 17 -86 18 -30 0 -51 4 -51 11 0 6 10 10 21 7 20 -3 20 -3 1
6 -11 4 -24 5 -30 1 -5 -5 -16 -1 -24 7 -11 12 -6 20 33 57 31 28 46 50 46 66
0 20 2 22 10 10 6 -10 4 -22 -5 -36 -19 -29 -1 -37 50 -23 42 12 63 45 46 76
-5 11 -7 23 -4 27 11 11 31 -35 25 -58z m238 58 c0 -3 -5 -15 -11 -26 -17 -32
3 -65 46 -77 44 -12 71 -5 54 15 -6 7 -9 23 -6 36 4 21 4 21 6 -4 1 -18 14
-36 41 -58 22 -17 40 -36 40 -42 0 -6 -8 -4 -18 5 -10 10 -21 14 -25 11 -3 -4
4 -15 16 -24 16 -13 24 -15 29 -7 6 9 8 9 8 1 0 -7 -10 -18 -23 -27 -18 -12
-35 -13 -81 -5 -32 5 -61 6 -64 3 -3 -3 6 -5 19 -6 21 0 19 -2 -11 -14 -19 -7
-28 -14 -20 -14 9 -1 2 -9 -15 -20 -16 -10 -45 -35 -63 -55 -19 -20 -38 -34
-43 -30 -13 7 5 38 37 63 21 17 23 21 9 21 -27 0 1 28 39 39 l31 9 -40 1 c-22
1 -49 8 -59 16 -23 17 -18 19 17 6 14 -6 45 -6 73 -2 l49 9 -56 1 c-61 1 -109
28 -109 59 1 12 6 8 15 -10 17 -30 33 -34 160 -41 79 -5 65 2 -37 18 -21 3
-49 16 -63 28 -28 24 -48 87 -34 108 6 10 9 3 9 -19 0 -68 39 -98 137 -107 56
-5 57 -5 28 9 -16 9 -40 15 -51 16 -25 0 -62 29 -65 50 -3 22 12 70 22 70 5 0
9 -3 9 -6z m-510 -44 c0 -10 -4 -21 -8 -24 -5 -3 -9 8 -9 24 0 16 4 27 9 24 4
-3 8 -14 8 -24z m108 5 c17 -37 16 -44 -23 -86 -19 -22 -35 -44 -35 -50 0 -8
-4 -9 -13 0 -8 6 -17 8 -20 4 -4 -3 -7 3 -7 13 0 11 -7 29 -15 40 -8 10 -14
24 -14 29 -1 6 7 0 17 -13 17 -22 17 -22 16 23 -1 25 2 42 8 39 5 -3 8 -18 7
-32 -1 -15 -1 -40 -1 -57 l2 -29 16 22 c9 13 14 34 11 48 -2 13 -1 24 3 24 12
0 20 -28 14 -45 -9 -23 4 -18 21 9 15 22 15 27 0 55 -8 17 -12 31 -7 31 5 0
14 -11 20 -25z m562 20 c0 -3 -7 -17 -16 -30 -15 -23 -15 -27 0 -50 15 -23 35
-37 21 -15 -8 12 3 50 14 50 5 0 6 -11 4 -24 -3 -14 2 -34 10 -46 14 -20 14
-20 20 7 3 15 3 40 0 54 -3 15 0 30 7 34 9 6 11 -5 9 -39 -4 -40 -2 -44 9 -29
7 10 10 29 7 43 -3 14 -1 32 5 40 7 11 10 3 10 -31 0 -25 -7 -54 -15 -65 -8
-10 -15 -28 -15 -38 0 -11 -3 -16 -7 -13 -3 4 -12 2 -20 -4 -9 -9 -13 -8 -13
0 0 6 -16 28 -35 50 -39 43 -40 46 -22 84 10 24 27 37 27 22z m-430 -21 c0
-22 -19 -54 -32 -54 -6 0 -3 9 7 20 9 10 15 26 12 35 -4 8 -2 15 3 15 6 0 10
-7 10 -16z m283 1 c-3 -9 3 -25 12 -35 10 -11 13 -20 7 -20 -15 0 -35 38 -28
56 3 8 8 14 10 14 3 0 3 -7 -1 -15z m487 -76 c0 -15 -5 -31 -11 -34 -7 -5 -5
-13 5 -24 13 -15 14 -20 2 -36 -8 -11 -20 -16 -30 -12 -21 8 -21 37 2 36 10 0
12 -3 4 -6 -13 -5 -7 -23 9 -23 12 0 12 37 0 44 -17 11 -41 -6 -41 -29 0 -26
21 -47 41 -42 8 2 11 2 8 0 -4 -2 0 -17 8 -33 10 -21 11 -35 4 -48 -5 -10 -7
-29 -4 -41 6 -22 5 -22 -21 3 -31 32 -31 34 -9 32 19 -1 28 26 18 52 -5 14 -7
14 -15 2 -8 -12 -10 -11 -10 6 0 12 -7 27 -16 34 -8 8 -14 25 -12 40 1 15 -3
35 -11 43 -20 25 -10 52 22 55 25 3 28 0 25 -20 -3 -24 -19 -29 -27 -7 -2 7 1
9 8 5 6 -4 11 -2 11 3 0 13 -27 15 -34 2 -13 -20 7 -42 33 -39 20 2 27 9 29
32 2 16 -1 33 -7 39 -6 6 -11 16 -11 22 1 23 30 -31 30 -56z m-1040 -63 c0 -6
-9 0 -20 14 -26 33 -25 52 0 21 11 -13 20 -28 20 -35z m842 32 c-7 -7 -12 -21
-12 -32 0 -15 -3 -17 -11 -9 -9 9 -8 18 5 38 10 15 20 24 24 21 3 -4 0 -12 -6
-18z m-883 -57 c-1 -21 -2 -22 -6 -6 -3 11 -11 27 -18 35 -26 32 -27 44 -2 21
17 -15 27 -34 26 -50z m924 36 c-12 -12 -23 -31 -26 -42 -4 -19 -5 -19 -6 1
-1 22 37 79 47 69 3 -3 -4 -15 -15 -28z m-855 -2 c-3 -3 -9 2 -12 12 -6 14 -5
15 5 6 7 -7 10 -15 7 -18z m782 21 c0 -2 -7 -9 -15 -16 -13 -11 -14 -10 -9 4
5 14 24 23 24 12z m-770 -56 c0 -5 13 -10 29 -10 21 0 32 -6 36 -20 11 -33 -5
-44 -30 -20 l-23 21 5 -45 c3 -25 3 -53 -1 -62 -6 -16 -8 -16 -22 -2 -14 14
-14 22 -4 53 9 28 9 40 0 48 -9 9 -11 8 -8 -3 3 -14 -1 -15 -33 -7 -36 8 -76
-126 -50 -169 8 -15 10 -7 8 38 -1 32 3 62 9 68 9 9 11 0 7 -37 -3 -35 -2 -44
6 -33 6 8 8 24 5 35 -3 11 2 29 10 40 15 19 15 18 10 -12 -5 -22 -3 -33 5 -33
8 0 5 -10 -7 -27 -24 -35 -56 -122 -48 -130 3 -4 6 -1 6 6 0 14 67 44 80 36
15 -9 12 -26 -7 -47 -9 -10 -11 -18 -5 -18 6 0 14 5 17 10 3 6 11 10 17 10 6
0 3 -9 -7 -20 -10 -11 -28 -20 -39 -20 -12 0 -32 -7 -44 -16 -21 -14 -22 -14
-22 6 0 13 10 24 27 31 31 12 63 38 63 51 0 12 -62 -21 -77 -41 -7 -9 -13 -11
-14 -6 0 6 -11 -36 -25 -93 -13 -57 -33 -124 -46 -150 -12 -26 -22 -51 -22
-57 -1 -11 -66 -49 -72 -42 -3 2 2 10 11 17 14 12 14 15 -1 31 -18 21 -6 27
14 7 6 -6 14 -9 18 -6 3 4 -4 15 -15 25 -12 9 -21 22 -21 27 0 5 11 -1 25 -14
14 -13 25 -19 25 -12 0 6 -12 20 -27 31 -14 12 -24 24 -21 26 3 3 16 -4 31
-15 42 -34 42 -22 -2 25 -22 24 -41 52 -41 61 0 9 14 -2 33 -27 17 -23 38 -44
45 -47 21 -7 13 24 -14 49 -14 13 -32 35 -39 49 -15 30 -26 122 -14 114 12 -7
22 40 17 81 -2 19 0 35 4 35 4 0 8 -40 8 -88 0 -83 2 -91 31 -131 23 -30 34
-39 40 -30 5 8 -5 27 -27 51 -22 25 -34 48 -34 67 0 51 13 121 22 121 5 0 6
-16 2 -37 -13 -65 -8 -108 17 -142 l23 -32 11 37 c8 29 7 49 -5 85 -14 44 -15
46 -21 21 -3 -15 0 -42 8 -61 17 -45 9 -52 -12 -10 -15 28 -16 39 -5 90 7 32
9 75 6 96 -5 27 -4 34 3 23 6 -8 11 -33 12 -55 2 -40 2 -40 12 13 8 44 7 59
-6 88 -24 50 -21 66 4 20 18 -34 20 -48 13 -142 -7 -108 3 -137 22 -65 7 24 7
46 2 56 -11 19 -6 131 7 159 6 15 5 17 -5 11 -8 -5 -11 -3 -8 6 3 8 1 22 -4
32 -5 10 -7 21 -4 24 3 4 11 -9 18 -27 l11 -33 23 26 c12 14 24 24 27 21 2 -2
10 2 17 11 14 17 30 20 30 5z m788 -22 c2 2 18 -16 35 -40 28 -41 29 -46 24
-133 -2 -49 -1 -103 2 -120 7 -29 7 -29 15 -7 4 13 5 63 1 111 -6 78 -4 92 14
127 12 22 21 31 21 21 0 -10 -7 -32 -16 -48 -12 -24 -13 -41 -6 -82 10 -52 10
-52 11 -12 1 22 6 47 12 55 7 11 8 4 4 -27 -4 -23 -1 -67 5 -97 9 -46 9 -60
-5 -86 -21 -40 -30 -33 -12 9 7 17 11 46 9 63 -5 30 -5 30 -21 -18 -12 -36
-14 -57 -7 -81 8 -28 12 -31 24 -20 31 25 42 72 32 128 -6 29 -8 55 -5 57 12
13 18 -13 19 -82 1 -72 0 -76 -33 -110 -36 -38 -36 -63 0 -30 37 33 51 73 49
138 -3 80 -2 96 8 96 4 0 7 -26 7 -57 0 -39 4 -57 12 -56 8 2 10 -9 7 -35 -10
-72 -15 -84 -55 -127 -22 -24 -36 -45 -32 -48 12 -7 48 25 72 64 19 31 21 32
21 10 0 -15 -15 -38 -40 -61 -22 -20 -40 -43 -40 -50 0 -9 7 -7 23 7 12 11 29
23 37 27 8 4 3 -3 -12 -16 -30 -25 -33 -35 -19 -57 8 -13 12 -13 27 0 16 13
16 12 4 -10 -11 -21 -10 -26 6 -38 9 -7 15 -15 12 -18 -3 -3 -16 4 -31 15 -14
11 -31 20 -38 20 -7 0 -10 3 -6 6 3 3 -7 33 -23 66 -16 33 -34 91 -40 130 -8
46 -16 68 -24 65 -6 -3 -20 1 -31 9 -10 8 -29 14 -40 14 -12 0 -30 9 -40 20
-21 23 -9 26 19 5 31 -23 42 -18 12 6 -27 21 -34 43 -16 54 13 8 80 -22 80
-36 0 -7 3 -9 6 -6 8 8 -25 97 -34 94 -4 -1 -18 6 -32 16 -16 11 -19 17 -9 17
8 0 21 -6 28 -12 11 -11 12 -10 6 1 -4 8 -9 34 -10 59 -1 40 0 43 12 26 8 -11
12 -29 10 -41 -2 -12 0 -28 5 -35 6 -8 8 4 5 35 -4 37 -2 46 7 37 6 -6 10 -36
9 -68 -2 -40 0 -52 7 -42 15 24 12 92 -8 130 -15 30 -22 35 -53 35 l-36 1 9
-34 c8 -27 6 -38 -6 -50 -14 -14 -16 -14 -22 2 -4 9 -4 37 -1 62 l5 45 -23
-21 c-25 -24 -41 -13 -30 20 4 14 15 20 35 20 16 0 32 5 35 11 5 7 14 4 27 -8
11 -10 23 -16 26 -15z m-433 12 c-3 -5 -11 -10 -16 -10 -6 0 -7 5 -4 10 3 6
11 10 16 10 6 0 7 -4 4 -10z m35 0 c0 -5 -2 -10 -4 -10 -3 0 -8 5 -11 10 -3 6
-1 10 4 10 6 0 11 -4 11 -10z m461 -30 c-4 -20 -10 -30 -14 -23 -7 11 10 70
18 62 2 -2 0 -20 -4 -39z m-676 10 c0 -8 9 -19 19 -25 11 -5 21 -16 24 -22 7
-22 -17 -14 -50 17 -17 17 -40 30 -50 30 -11 0 -16 5 -13 11 10 16 70 7 70
-11z m449 11 c6 -9 -62 -26 -71 -17 -3 2 -2 9 2 15 8 13 62 15 69 2z m-523
-47 c10 -29 3 -68 -12 -59 -9 6 -13 85 -4 85 3 0 10 -12 16 -26z m545 -51 c-3
-8 -10 -11 -16 -8 -14 9 -13 42 3 68 12 21 12 21 15 -11 2 -19 1 -41 -2 -49z
m-93 48 c-12 -10 -20 -21 -17 -23 8 -9 -16 -59 -26 -53 -5 3 -6 15 -1 28 4 12
6 28 3 36 -5 16 15 31 43 31 19 -1 19 -1 -2 -19z m-387 -63 c27 -28 46 -23 34
8 -14 37 -12 42 9 17 16 -19 17 -27 8 -48 -15 -30 -31 -32 -50 -4 -10 13 -16
16 -19 8 -8 -25 -28 3 -28 39 1 35 2 36 15 17 8 -11 22 -28 31 -37z m433 -22
c-8 -8 -13 -8 -16 2 -4 10 -9 8 -20 -7 -17 -25 -43 -28 -43 -5 0 8 13 20 29
25 15 6 34 22 42 37 l13 27 4 -34 c2 -18 -2 -39 -9 -45z m-316 17 c-9 -3 -10
-10 -3 -24 8 -13 7 -19 0 -19 -6 0 -8 -10 -4 -25 8 -34 -2 -32 -21 5 -13 26
-14 29 0 24 18 -7 19 0 4 28 -8 15 -8 19 0 14 14 -9 14 0 0 27 -11 21 -10 21
12 -2 16 -16 20 -25 12 -28z m185 22 c-11 -25 -28 -34 -28 -16 0 9 28 41 35
41 3 0 -1 -11 -7 -25z m0 -44 c-7 -12 -16 -21 -21 -21 -8 0 -2 14 16 38 16 20
20 6 5 -17z m-108 -47 c0 -14 -6 -27 -13 -29 -7 -3 -13 -23 -13 -45 -1 -39 0
-40 31 -40 30 0 31 2 31 38 -1 20 -7 43 -13 50 -19 19 -16 46 7 73 l20 24 -10
-28 c-14 -40 -13 -52 5 -37 17 15 19 7 5 -21 -6 -11 -7 -19 -1 -19 5 0 7 -9 4
-20 -6 -24 12 -27 26 -3 7 14 11 7 16 -30 8 -50 17 -58 34 -29 9 15 10 15 11
1 0 -9 -8 -27 -18 -39 -27 -34 -46 -17 -39 34 5 35 4 39 -7 24 -7 -10 -18 -18
-25 -18 -6 0 -11 -7 -11 -15 0 -8 7 -15 15 -15 20 0 19 -29 -1 -37 -9 -3 -24
-2 -33 4 -11 7 -21 7 -32 0 -9 -6 -24 -7 -33 -4 -20 8 -21 37 -1 37 8 0 15 -5
15 -11 0 -5 -4 -7 -10 -4 -5 3 -10 1 -10 -4 0 -6 6 -11 13 -11 18 0 37 21 37
40 0 13 -2 13 -10 0 -8 -12 -10 -12 -16 3 -3 9 -11 17 -16 17 -16 0 -37 32
-37 55 0 18 0 19 10 3 14 -24 33 -23 26 2 -3 11 -1 20 4 20 6 0 5 8 -1 19 -14
28 -12 36 5 21 12 -10 15 -9 15 4 0 10 -5 27 -11 39 -10 21 -9 21 10 -2 12
-13 21 -34 21 -47z m-339 -27 c-13 -13 -15 41 -3 70 5 13 8 8 10 -21 2 -21 -1
-43 -7 -49z m628 17 c-6 -8 -17 -14 -24 -14 -7 0 -18 -7 -25 -15 -24 -29 -27
-15 -6 30 19 41 22 43 27 23 6 -22 8 -21 20 11 l14 34 3 -27 c2 -15 -2 -34 -9
-42z m75 -9 c-11 -27 -24 -5 -23 38 l1 42 14 -32 c7 -18 11 -39 8 -48z m238
48 c-3 -16 -7 -22 -10 -15 -4 13 4 42 11 42 2 0 2 -12 -1 -27z m-852 -13 c0
21 4 18 24 -20 25 -49 25 -60 0 -39 -9 7 -26 18 -38 24 -11 6 -23 22 -25 35
l-3 25 21 -25 20 -25 1 25z m-141 -10 c-21 -17 -21 -19 -4 -13 17 5 17 3 -5
-18 -26 -26 -41 -30 -22 -6 7 8 9 17 5 20 -9 9 17 37 34 37 11 0 8 -6 -8 -20z
m225 -50 c2 0 2 10 -1 23 -6 21 -5 20 16 -5 24 -30 27 -42 7 -35 -8 3 -17 1
-20 -6 -8 -20 -36 24 -36 57 l1 31 14 -32 c8 -18 16 -33 19 -33z m276 39 c-7
-11 -14 -19 -16 -16 -7 7 7 37 17 37 6 0 5 -9 -1 -21z m90 -49 c-13 -25 -35
-27 -25 -2 5 14 4 15 -6 5 -24 -23 -30 -13 -12 17 15 26 19 28 24 13 5 -15 8
-12 15 12 l9 30 3 -27 c2 -15 -2 -36 -8 -48z m-510 15 c0 -25 -4 -45 -10 -45
-11 0 -13 33 -4 68 10 34 14 27 14 -23z m213 5 c3 -11 1 -23 -5 -26 -13 -8
-17 -3 -25 37 -6 30 -5 32 9 21 9 -7 18 -22 21 -32z m234 5 c-6 -19 -14 -35
-19 -35 -12 0 -10 44 4 58 21 21 26 13 15 -23z m202 -27 c1 -16 -3 -28 -9 -28
-5 0 -10 21 -9 48 0 35 3 42 9 27 5 -11 9 -32 9 -47z m91 27 c13 -14 21 -27
18 -30 -2 -3 -17 9 -33 25 -16 17 -24 30 -19 30 6 0 21 -11 34 -25z m-913 -47
c-3 -7 -5 -2 -5 12 0 14 2 19 5 13 2 -7 2 -19 0 -25z m980 0 c-3 -7 -5 -2 -5
12 0 14 2 19 5 13 2 -7 2 -19 0 -25z m-757 -17 c7 10 12 6 21 -16 6 -17 13
-24 16 -17 10 26 23 10 23 -29 0 -49 -17 -49 -41 0 -11 20 -19 27 -22 19 -9
-22 -37 22 -37 56 l1 31 15 -29 c12 -22 18 -25 24 -15z m570 11 c0 -33 -28
-75 -37 -54 -3 8 -11 1 -22 -19 -26 -48 -41 -48 -41 0 0 23 5 41 10 41 6 0 10
-5 10 -11 0 -5 5 -7 10 -4 6 3 10 15 10 26 0 16 5 19 19 14 14 -4 21 0 26 15
9 28 15 25 15 -8z m-303 -4 c-3 -8 -6 -5 -6 6 -1 11 2 17 5 13 3 -3 4 -12 1
-19z m-77 -41 c0 -12 -5 -29 -10 -37 -9 -13 -13 -12 -30 9 -11 13 -20 31 -20
40 1 14 2 14 11 -1 14 -24 29 -23 29 3 0 11 5 17 10 14 6 -3 10 -16 10 -28z
m-95 -17 c7 0 16 6 18 13 3 6 6 -2 6 -20 1 -17 -4 -35 -11 -39 -14 -9 -38 23
-37 50 0 12 3 15 6 9 2 -7 11 -13 18 -13z m340 0 c7 0 16 6 18 13 3 6 6 3 6
-9 1 -27 -23 -59 -37 -50 -7 4 -12 22 -11 39 0 18 3 26 6 20 2 -7 11 -13 18
-13z m-475 -30 c-8 -5 -35 -6 -60 -3 -31 3 -56 0 -74 -9 -25 -13 -23 -14 41
-12 l68 3 -56 -8 c-30 -4 -63 -12 -71 -17 -22 -12 151 -5 175 7 10 6 17 6 17
0 0 -15 -28 -21 -103 -21 -44 -1 -79 -6 -89 -14 -15 -11 -11 -12 32 -8 34 3
50 1 50 -7 0 -8 -17 -11 -52 -9 -46 3 -52 6 -53 26 -1 13 2 25 7 28 4 3 6 9 3
13 -12 21 33 40 100 43 76 3 87 1 65 -12z m762 -7 c9 -8 15 -25 13 -39 -1 -13
2 -27 7 -30 20 -13 -7 -24 -60 -24 -41 0 -53 3 -45 11 6 6 30 10 52 7 28 -2
37 0 30 7 -5 5 -49 12 -96 15 -61 4 -88 9 -91 19 -3 10 -1 11 9 5 17 -11 189
-22 182 -11 -2 4 -28 7 -58 7 -30 0 -57 5 -61 11 -4 8 12 10 54 7 34 -1 58 0
54 4 -4 3 -32 8 -62 9 -62 3 -90 8 -90 18 0 13 145 -1 162 -16z m-326 -66 c95
-48 145 -125 152 -233 8 -127 -41 -219 -149 -279 -48 -27 -63 -30 -139 -30
-97 0 -138 16 -204 81 -59 58 -81 114 -80 209 0 82 10 114 57 177 26 35 84 76
134 94 58 22 167 13 229 -19z m-341 13 c3 -5 -3 -10 -14 -10 -11 0 -32 -11
-48 -24 -15 -12 -38 -28 -50 -35 -28 -14 -73 -14 -73 0 0 6 7 9 15 5 20 -7 65
10 95 38 36 33 64 43 75 26z m495 -24 c34 -32 69 -49 86 -42 8 3 14 1 14 -4 0
-22 -55 -8 -101 25 -27 19 -56 35 -64 35 -8 0 -15 5 -15 11 0 17 51 1 80 -25z
m-710 -34 c0 -5 -13 -7 -30 -4 -16 2 -30 6 -30 8 0 2 14 4 30 4 17 0 30 -4 30
-8z m17 -12 c-7 -26 26 -35 91 -26 36 5 44 4 34 -6 -7 -7 -37 -12 -68 -12 -31
0 -51 -2 -45 -4 24 -8 9 -18 -21 -14 l-33 5 20 -23 20 -24 -25 17 c-13 9 -40
17 -60 18 -34 1 -34 1 10 10 60 12 72 17 66 28 -3 5 -24 2 -47 -6 -23 -7 -44
-11 -47 -9 -3 3 4 9 14 12 58 21 84 34 84 43 0 6 3 11 6 11 4 0 4 -9 1 -20z
m860 -12 c5 14 43 16 43 2 0 -5 -8 -10 -17 -10 -12 -1 -7 -6 12 -15 l30 -14
-30 5 c-16 3 -35 7 -42 9 -7 2 -36 -1 -65 -7 -55 -11 -108 0 -108 22 0 7 6 8
19 0 22 -11 80 -13 105 -4 13 5 13 10 4 27 -10 20 -8 20 17 -3 19 -17 29 -21
32 -12z m32 28 c-12 -10 -59 -15 -59 -6 0 5 14 10 32 10 17 0 29 -2 27 -4z
m-939 -20 c0 -2 -9 -6 -20 -9 -11 -3 -20 -1 -20 4 0 5 9 9 20 9 11 0 20 -2 20
-4z m935 -55 c36 -8 37 -9 10 -10 -17 0 -41 -8 -53 -17 -26 -18 -30 -8 -4 13
15 13 13 14 -21 9 -22 -3 -35 -1 -32 5 7 11 45 11 100 0z m129 -15 c-10 -8
-21 -12 -23 -10 -3 2 4 11 15 18 10 8 21 12 23 10 3 -2 -4 -11 -15 -18z
m-1074 -21 c13 -16 0 -21 -15 -6 -6 5 -21 11 -35 14 -22 4 -21 4 6 6 17 0 37
-6 44 -14z m965 0 c-50 -18 -50 -18 -35 0 7 8 27 15 44 15 31 -1 31 -1 -9 -15z
m-979 -20 c26 -13 27 -15 7 -15 -12 0 -25 5 -29 11 -3 6 -15 9 -25 6 -11 -3
-19 -1 -19 4 0 14 34 11 66 -6z m1019 6 c3 -6 -3 -10 -12 -10 -10 0 -31 -3
-48 -6 l-30 -6 25 14 c29 18 57 21 65 8z m-860 -91 c0 -73 -1 -75 -25 -75 -20
0 -25 5 -25 25 0 29 28 35 33 8 2 -10 -2 -18 -8 -18 -6 0 -8 5 -5 10 3 6 1 10
-4 10 -6 0 -11 -7 -11 -15 0 -8 9 -15 21 -15 16 0 20 5 17 27 -5 45 -88 57
-88 13 0 -11 4 -20 10 -20 5 0 7 8 3 18 -5 14 -3 15 8 5 9 -10 10 -16 2 -24
-15 -15 -33 -3 -33 22 0 16 -6 20 -27 17 -28 -3 -39 -28 -15 -36 8 -2 10 2 6
15 -5 12 -4 15 3 8 6 -5 9 -25 6 -44 -4 -25 -13 -36 -37 -47 -27 -12 -28 -13
-8 -14 13 0 37 7 55 15 l32 16 -25 -22 -25 -22 37 5 c25 2 35 1 28 -6 -6 -6
-30 -6 -67 0 -47 7 -60 14 -70 34 -12 24 -11 25 18 31 39 9 45 15 30 33 -7 8
-10 20 -6 26 4 6 -7 10 -29 10 -35 0 -50 -20 -26 -35 6 -3 7 1 4 9 -3 9 -1 16
5 16 6 0 11 -9 11 -20 0 -11 -6 -20 -14 -20 -8 0 -17 -6 -20 -12 -4 -9 -5 -8
-5 2 1 8 1 28 0 44 -1 25 -4 27 -26 22 -14 -4 -25 -2 -25 4 0 5 11 10 24 10
18 0 25 6 28 23 2 13 10 22 21 22 20 0 25 -17 6 -24 -7 -2 -9 1 -4 9 5 9 4 11
-3 6 -7 -4 -12 -13 -12 -21 0 -11 16 -14 64 -14 59 1 65 3 68 22 4 26 31 29
36 5 2 -10 -2 -18 -8 -18 -7 0 -10 7 -6 15 3 8 1 15 -4 15 -6 0 -10 -8 -10
-19 0 -21 48 -33 74 -19 24 14 21 58 -4 58 -22 0 -27 -24 -8 -36 8 -5 9 -1 4
12 -6 15 -5 17 5 7 10 -10 10 -16 2 -24 -14 -14 -33 -3 -33 20 0 24 10 32 35
29 18 -3 20 -10 20 -78z m692 60 c2 -8 -1 -22 -7 -30 -7 -12 -12 -12 -22 -2
-9 9 -9 15 1 25 10 10 11 8 5 -8 -5 -16 -4 -18 6 -8 14 13 5 33 -15 33 -22 0
-25 -30 -5 -50 11 -11 31 -20 45 -20 29 0 44 26 25 43 -10 10 -12 8 -7 -5 4
-10 2 -18 -3 -18 -11 0 -14 23 -4 33 11 11 34 -5 34 -24 0 -30 50 -26 51 4 l2
22 4 -22 c4 -19 11 -23 39 -23 34 0 47 21 22 36 -6 4 -8 3 -4 -4 3 -6 2 -13
-3 -16 -14 -9 -25 14 -13 26 15 15 42 -8 42 -34 0 -16 5 -19 25 -14 14 4 25 2
25 -4 0 -5 -11 -10 -24 -10 -16 0 -26 -7 -30 -22 -9 -36 10 -45 39 -18 14 13
28 20 32 17 3 -4 -2 -13 -11 -20 -16 -12 -17 -17 -6 -38 13 -24 13 -24 -7 -6
-20 17 -21 17 -26 -5 -5 -16 1 -31 21 -52 29 -31 12 -26 -25 7 -41 36 -25 -2
17 -42 22 -21 40 -46 40 -57 -1 -18 -1 -18 -15 1 -29 39 -68 74 -77 69 -5 -3
9 -25 31 -49 26 -28 42 -56 46 -82 3 -21 8 -49 11 -63 4 -24 4 -24 -11 -6 -14
18 -15 14 -15 -55 0 -50 -3 -69 -10 -59 -5 8 -7 47 -4 85 6 67 4 72 -26 118
-23 34 -36 45 -43 38 -8 -8 -1 -21 23 -46 32 -33 34 -38 32 -106 0 -40 -5 -76
-11 -82 -6 -6 -8 16 -4 65 5 69 4 76 -20 103 -28 32 -37 19 -12 -18 10 -16 14
-49 12 -129 -2 -110 -16 -140 -18 -40 l-2 57 -10 -63 c-8 -53 -7 -69 7 -98 23
-50 19 -66 -6 -20 -18 35 -20 50 -14 135 4 63 3 101 -5 111 -8 11 -9 3 -5 -35
3 -29 2 -42 -2 -31 -13 30 -24 2 -12 -29 13 -34 13 -121 0 -146 -8 -13 -7 -19
0 -19 6 0 8 -4 5 -10 -3 -5 -1 -19 5 -31 7 -11 9 -23 6 -26 -3 -3 -12 8 -19
26 -13 31 -13 31 -32 11 -10 -11 -23 -20 -28 -20 -5 0 -16 -8 -24 -17 -10 -13
-16 -15 -19 -5 -3 6 -16 12 -28 12 -27 0 -46 18 -46 42 0 24 9 23 38 -4 23
-21 25 -22 17 -3 -4 11 -9 41 -10 66 -1 26 -5 51 -9 57 -9 14 4 72 17 72 6 0
7 -17 4 -44 -5 -35 -3 -45 10 -50 13 -5 15 -16 10 -56 -3 -27 -2 -52 3 -55 6
-3 7 1 4 9 -5 13 0 15 24 10 26 -5 32 -2 46 24 21 41 29 101 17 137 -8 26 -9
23 -10 -30 -1 -68 -6 -79 -39 -90 -21 -6 -23 -5 -13 13 13 25 14 55 2 47 -6
-3 3 21 19 52 16 32 32 72 36 88 6 29 6 30 -10 9 -9 -12 -30 -27 -48 -33 -27
-8 -29 -8 -14 2 11 7 30 22 43 35 13 12 28 22 32 22 5 0 16 39 25 88 10 48 30
114 45 147 28 61 30 85 6 85 -8 0 -17 5 -20 10 -9 14 4 32 17 24 6 -4 5 -10
-3 -16 -11 -8 -11 -9 1 -5 28 7 16 32 -16 35 -27 3 -32 -1 -37 -25 -7 -34 3
-45 37 -45 14 0 23 -4 20 -9 -7 -12 -41 -11 -49 1 -3 6 -16 10 -28 10 -18 0
-19 2 -7 10 10 6 11 10 3 10 -16 0 -17 26 -1 36 8 5 9 2 5 -9 -3 -10 -2 -17 3
-17 6 0 10 9 10 20 0 30 -47 28 -52 -2 -3 -26 -38 -38 -38 -14 0 9 5 16 11 16
5 0 7 -5 3 -12 -4 -7 -3 -8 4 -4 7 4 12 14 12 22 0 24 -77 19 -90 -7 -15 -27
5 -56 26 -38 17 14 18 29 3 29 -5 0 -7 -4 -4 -10 3 -5 1 -10 -5 -10 -6 0 -10
8 -8 18 4 21 19 20 32 -1 8 -12 6 -21 -5 -32 -31 -32 -71 13 -49 55 8 14 8 26
0 40 -15 28 4 62 33 58 12 -2 23 -10 24 -18z m-821 -11 c3 -6 1 -16 -6 -22
-10 -9 -12 -8 -6 7 5 14 2 17 -9 12 -9 -3 -13 -2 -10 4 8 13 22 13 31 -1z
m910 -9 c0 -12 -4 -16 -9 -11 -5 5 -6 14 -3 20 10 15 12 14 12 -9z m-1039
-112 c34 -36 61 -105 87 -229 28 -127 46 -185 72 -224 14 -21 15 -28 5 -35
-10 -6 -10 -12 -2 -28 14 -27 14 -39 -1 -24 -6 6 -15 31 -19 54 l-8 43 3 -50
c4 -45 3 -48 -11 -30 -10 15 -12 33 -7 69 4 34 3 47 -5 42 -17 -11 -13 -97 7
-136 13 -28 23 -35 45 -35 15 1 27 -3 27 -8 0 -4 4 -6 9 -3 4 3 4 24 -2 46
-12 42 0 69 22 56 14 -9 14 -71 1 -97 -14 -25 -2 -24 27 2 20 20 23 20 29 5 8
-22 -13 -46 -40 -46 -12 0 -27 -5 -32 -10 -8 -8 -15 -6 -24 5 -7 8 -17 15 -22
15 -5 0 -20 12 -33 28 l-24 27 -1 -27 c0 -15 -4 -30 -10 -33 -12 -8 -12 -7 -1
31 5 18 6 46 2 64 l-6 32 -23 -46 c-31 -60 -37 -59 -12 3 15 39 17 59 11 93
-7 36 -9 38 -10 13 -1 -16 -6 -37 -12 -45 -8 -11 -9 -8 -4 14 3 17 1 58 -6 91
-11 58 -11 65 11 108 28 56 23 69 -11 24 -21 -28 -24 -42 -23 -107 1 -51 -1
-66 -6 -45 -4 17 -8 51 -9 78 -1 40 4 52 32 83 l33 36 -15 49 c-8 27 -20 48
-26 46 -5 -2 -25 -23 -42 -46 -19 -25 -33 -36 -33 -27 0 9 18 36 40 60 49 53
51 66 5 30 -19 -14 -35 -23 -35 -19 0 4 11 16 25 27 14 11 25 24 25 30 0 6 -8
4 -18 -5 -10 -10 -22 -17 -27 -17 -5 0 1 9 13 21 12 11 20 25 16 30 -3 6 -12
3 -20 -8 -7 -10 -14 -13 -14 -7 0 5 6 16 13 23 10 10 9 15 -5 25 -10 7 -18 16
-18 20 0 11 33 -10 57 -36z m1078 -33 c40 -14 40 -14 9 -15 -17 0 -37 7 -44
15 -15 18 -15 18 35 0z m-5 -26 c23 -1 12 -5 -33 -12 -48 -7 -72 -6 -79 1 -8
8 0 10 28 5 l39 -6 -20 23 -20 24 25 -17 c13 -9 40 -18 60 -18z m130 -9 c0
-15 -5 -12 -26 11 -19 22 -19 22 4 10 12 -6 22 -16 22 -21z m-1045 -20 c59 7
124 5 134 -5 7 -7 -13 -10 -57 -10 -66 0 -67 0 -63 -25 l3 -25 -20 25 c-19 23
-22 24 -37 9 -16 -15 -15 -16 11 -11 19 3 25 1 20 -7 -7 -10 -56 -16 -56 -7 0
2 -3 11 -6 20 -4 11 0 16 12 16 14 1 10 5 -11 15 l-30 15 35 -7 c19 -4 49 -5
65 -3z m850 -3 c11 -1 36 2 55 5 l35 7 -30 -14 c-19 -9 -24 -14 -12 -15 9 0
17 -4 17 -10 0 -14 -38 -12 -43 3 -3 8 -11 6 -27 -8 -20 -17 -23 -18 -17 -3 8
23 -27 32 -89 25 -24 -2 -44 -3 -44 0 0 12 51 22 90 17 25 -3 54 -6 65 -7z
m-716 -62 c28 -19 58 -35 68 -35 12 0 14 -3 6 -11 -12 -12 -46 4 -94 42 -15
12 -42 25 -60 29 l-34 8 31 1 c21 1 49 -11 83 -34z m681 28 c0 -5 -16 -8 -35
-9 -24 0 -44 -9 -63 -27 -32 -31 -79 -50 -87 -37 -4 6 0 10 7 10 7 0 35 16 62
35 33 23 61 35 83 35 18 0 33 -3 33 -7z m-976 -54 c-19 -28 -34 -61 -33 -73 0
-14 2 -16 6 -6 9 25 55 90 64 90 5 0 -4 -19 -21 -42 -28 -38 -30 -48 -30 -124
0 -47 -5 -86 -10 -89 -7 -4 -9 2 -4 19 9 35 -4 98 -18 90 -22 -14 2 99 30 136
22 30 41 49 49 50 1 0 -14 -23 -33 -51z m1065 35 c2 -2 -10 -4 -27 -4 -18 0
-32 5 -32 10 0 9 47 4 59 -6z m-865 -25 c-4 -7 -24 -9 -53 -5 l-46 5 29 -16
c22 -11 44 -14 87 -9 49 5 61 2 81 -15 22 -19 22 -20 1 -10 -12 6 -55 11 -96
11 -59 0 -77 4 -90 18 -23 25 -13 32 45 32 34 0 47 -4 42 -11z m861 2 c3 -5 1
-12 -3 -15 -5 -3 -8 -17 -7 -31 2 -14 0 -27 -5 -30 -4 -3 -6 -14 -3 -24 4 -15
-5 -26 -35 -45 -22 -14 -43 -30 -47 -36 -3 -5 -12 -10 -18 -10 -7 0 3 14 21
30 35 33 32 38 -10 16 -32 -17 -35 -14 -12 8 8 9 25 16 38 16 12 0 30 6 39 13
14 10 3 11 -63 7 -76 -5 -99 0 -64 14 9 3 42 6 74 6 32 0 61 4 64 8 3 5 -23 6
-56 4 -42 -3 -59 -1 -54 6 3 6 29 11 57 10 28 0 55 4 60 9 10 10 -162 1 -178
-10 -8 -5 -13 -4 -13 2 0 20 36 29 100 24 49 -4 70 -1 85 10 19 15 17 15 -21
10 -25 -3 -44 -1 -48 6 -5 7 9 11 43 11 27 0 52 -4 56 -9z m-940 -41 c3 -5 30
-10 60 -10 30 0 57 -5 61 -11 5 -9 -11 -11 -61 -6 -49 3 -64 2 -51 -5 10 -5
43 -10 74 -10 32 0 64 -4 72 -9 9 -5 -14 -9 -61 -9 -63 0 -79 3 -94 20 -10 11
-15 20 -10 20 4 0 2 7 -5 15 -8 9 -9 15 -2 15 6 0 14 -4 17 -10z m255 -64 c0
-19 -4 -38 -10 -41 -5 -3 -10 -1 -10 4 0 22 -18 10 -25 -16 -4 -18 -9 -23 -14
-15 -8 14 -23 2 -34 -28 -3 -8 -6 1 -6 21 -1 21 5 42 14 49 12 10 15 9 15 -6
1 -18 1 -18 12 1 40 75 58 84 58 31z m57 -6 c1 -19 0 -29 -3 -22 -3 6 -12 12
-19 12 -7 0 -16 -6 -18 -12 -3 -7 -6 -3 -6 9 -2 61 42 74 46 13z m329 25 c4
-8 10 -15 15 -15 5 0 9 7 9 15 0 21 9 19 31 -7 11 -14 18 -37 18 -58 -1 -21
-3 -27 -6 -15 -8 31 -22 42 -33 25 -8 -12 -10 -11 -10 5 0 15 -3 17 -9 7 -6
-11 -10 -10 -15 5 -7 17 -8 17 -22 -1 -13 -19 -14 -18 -14 10 0 43 24 62 36
29z m-191 -5 c4 -6 13 -5 24 2 10 6 26 8 35 5 20 -8 21 -37 1 -37 -8 0 -15 5
-15 11 0 5 5 7 10 4 6 -3 10 -1 10 4 0 6 -6 11 -13 11 -18 0 -37 -21 -36 -39
0 -11 2 -12 6 -3 2 6 9 10 14 6 17 -10 -2 -24 -32 -24 -19 0 -29 5 -29 15 0 8
-7 15 -15 15 -15 0 -21 21 -8 33 10 10 41 8 48 -3z m-390 -30 c21 0 45 -17 45
-33 0 -4 -10 -1 -22 7 -33 24 -45 19 -14 -5 26 -21 34 -43 17 -53 -14 -9 -71
15 -81 34 -14 26 -12 38 3 19 7 -9 27 -24 45 -33 33 -17 33 -17 22 3 -6 11
-20 26 -33 32 -34 18 -57 41 -51 50 3 5 15 2 27 -6 12 -8 31 -15 42 -15z m321
6 c3 -14 1 -33 -5 -43 -10 -17 -10 -16 -11 5 0 24 -10 28 -28 10 -17 -17 -15
4 4 30 20 29 32 28 40 -2z m199 -6 c9 -17 11 -30 5 -30 -5 0 -10 5 -10 11 0 6
-6 9 -12 6 -7 -2 -12 -12 -10 -22 2 -10 -1 -14 -7 -10 -12 7 -15 58 -4 68 12
13 23 7 38 -23z m175 -20 c6 -12 9 -33 7 -48 -4 -26 -4 -26 -12 -4 -4 12 -11
22 -16 22 -5 0 -9 11 -9 25 0 30 15 33 30 5z m-329 -37 c5 -14 3 -28 -7 -40
-12 -15 -13 -15 -8 -1 10 28 -7 44 -23 23 -16 -22 -18 -2 -2 26 12 24 29 21
40 -8z m105 2 c9 -14 13 -29 9 -33 -4 -4 -10 -1 -12 6 -7 18 -23 15 -23 -5 0
-13 -3 -14 -11 -6 -13 13 -4 63 11 63 5 0 17 -11 26 -25z m-387 -52 c0 -36 -3
-43 -9 -28 -12 28 -12 75 0 75 6 0 10 -21 9 -47z m648 11 c-3 -20 -9 -39 -12
-42 -12 -12 -17 9 -11 43 9 47 31 47 23 -1z m-499 19 c-2 -5 -12 -26 -22 -48
-11 -22 -21 -35 -23 -28 -6 16 24 83 37 83 7 0 10 -3 8 -7z m358 -10 c7 -10
13 -31 13 -48 l0 -30 -14 33 c-16 37 -25 42 -18 10 5 -22 4 -22 -16 2 -24 30
-27 44 -6 36 8 -3 15 -1 15 4 0 15 11 12 26 -7z m-338 -10 c-9 -10 -18 -25
-21 -33 -4 -11 -6 -9 -6 6 -1 21 16 44 33 44 5 0 2 -8 -6 -17z m42 1 c0 -20
-18 -54 -29 -54 -5 0 -4 16 2 35 11 36 27 47 27 19z m240 -36 c0 -24 -6 -23
-26 7 -19 30 -8 58 13 30 7 -11 13 -27 13 -37z m-543 15 c22 -21 24 -25 8 -20
-17 6 -17 4 4 -13 16 -14 19 -20 8 -20 -17 0 -43 28 -33 37 3 3 -1 15 -11 25
-25 28 -8 22 24 -9z m193 24 c0 -2 -9 -21 -20 -43 -11 -23 -19 -32 -20 -21 0
23 -18 13 -30 -17 l-9 -21 0 22 c-1 33 9 53 29 53 10 0 20 7 24 15 4 13 26 22
26 12z m450 -12 c7 -8 18 -15 26 -15 16 0 34 -31 34 -57 0 -13 -6 -9 -21 15
-24 37 -29 40 -22 12 3 -11 0 -20 -6 -20 -6 0 -11 7 -11 15 0 9 -7 27 -16 40
-18 27 -5 35 16 10z m194 -7 c-5 -7 -9 -19 -11 -27 -2 -15 -22 -31 -38 -31 -5
0 1 9 15 20 l25 19 -25 -5 c-24 -6 -24 -6 5 19 31 26 43 28 29 5z m-764 -49
c0 -22 -4 -38 -9 -34 -13 7 -24 62 -16 75 12 20 25 -1 25 -41z m325 32 c6 -20
-13 -71 -27 -71 -5 0 -4 9 2 20 13 24 2 50 -11 29 -7 -11 -9 -11 -9 2 0 16 18
39 31 39 4 0 10 -8 14 -19z m49 3 c9 -22 8 -26 -5 -18 -8 5 -10 -3 -7 -24 4
-25 2 -29 -9 -21 -14 12 -18 61 -6 72 11 11 20 8 27 -9z m-127 -29 c1 -20 -5
-40 -15 -47 -13 -11 -14 -10 -4 9 16 29 15 34 -3 26 -13 -5 -14 -2 -4 21 17
35 25 33 26 -9z m196 5 c4 -17 3 -19 -9 -9 -8 6 -14 18 -14 26 0 20 16 8 23
-17z m-704 -44 c-9 -8 -10 -7 -5 7 3 10 7 24 7 30 1 7 3 4 6 -7 3 -10 -1 -23
-8 -30z m1197 5 c4 -11 7 -11 17 3 10 14 12 8 14 -36 1 -28 -2 -57 -8 -64 -6
-7 -7 -19 -3 -25 4 -8 3 -9 -5 -5 -17 11 -41 -12 -41 -39 0 -25 20 -38 40 -25
15 9 7 40 -11 40 -6 0 -9 -7 -5 -15 3 -8 1 -15 -5 -15 -17 0 -5 35 14 38 21 4
34 -25 20 -46 -6 -11 -6 -25 1 -44 8 -22 7 -34 -7 -57 -15 -25 -15 -30 -2 -35
19 -7 19 -33 0 -66 -10 -18 -14 -20 -15 -8 0 9 -3 25 -6 35 -5 15 -4 15 5 3
12 -18 26 -7 18 15 -9 21 -34 19 -47 -4 -12 -24 1 -66 25 -74 10 -5 18 0 24
15 4 12 11 17 14 11 4 -5 -7 -25 -24 -44 -41 -46 -92 -49 -131 -7 -32 34 -34
40 -13 32 21 -9 45 14 45 42 0 19 -5 24 -25 24 -17 0 -25 -6 -26 -17 -1 -17
-2 -17 -6 0 -2 9 -12 17 -21 17 -15 1 -16 2 -1 13 9 7 14 18 12 25 -3 6 0 12
6 12 6 0 11 -6 11 -14 0 -8 7 -16 15 -20 11 -4 15 1 15 19 0 14 -7 25 -17 28
-14 4 -12 5 5 6 13 1 22 8 23 19 0 13 2 14 6 2 4 -8 13 -21 22 -28 13 -10 14
-12 1 -10 -10 2 -15 -5 -15 -22 0 -16 6 -26 18 -28 25 -5 49 18 43 41 -3 13 0
17 10 13 19 -7 37 30 30 61 -5 19 -12 24 -34 21 -31 -3 -39 -40 -9 -46 9 -2
17 2 17 8 0 6 -5 8 -11 4 -7 -4 -10 -2 -8 5 7 19 24 14 24 -6 0 -12 -8 -18
-25 -18 -22 0 -25 4 -22 30 6 73 19 115 34 115 6 0 8 9 5 21 -4 15 -2 18 7 10
16 -14 26 -4 26 27 0 14 -7 26 -17 28 -13 4 -19 16 -20 42 -1 34 0 33 13 -7z
m-496 -14 c0 -5 -7 -4 -15 3 -8 7 -15 20 -15 29 1 13 3 13 15 -3 8 -11 15 -24
15 -29z m-715 -15 c-18 -4 -25 -35 -13 -58 8 -17 8 -17 -7 1 -9 12 -13 28 -10
40 4 11 6 31 6 44 l-1 23 19 -23 c15 -18 16 -25 6 -27z m460 18 c4 -19 2 -36
-5 -45 -22 -26 -31 -16 -15 15 13 26 13 30 1 30 -8 0 -28 -14 -44 -30 -26 -26
-31 -27 -34 -13 -7 32 4 55 23 50 10 -3 23 1 30 9 19 23 37 16 44 -16z m348 9
c10 -13 16 -16 19 -8 7 22 28 -1 28 -32 0 -32 -19 -40 -27 -10 -3 11 -20 27
-39 36 -19 9 -32 20 -29 26 10 15 33 10 48 -12z m-34 -35 c6 -15 10 -28 8 -31
-7 -7 -37 28 -37 43 0 23 16 16 29 -12z m-239 9 c0 -10 -32 -43 -42 -43 -5 0
-1 11 8 25 15 23 34 33 34 18z m60 -8 c0 -18 -35 -51 -80 -75 -19 -11 -31 -19
-27 -20 4 0 21 7 37 15 17 9 31 11 35 5 7 -11 -27 -30 -70 -41 -25 -6 -22 -7
21 -8 30 -1 58 -7 70 -17 19 -15 19 -16 -1 -8 -11 4 -40 9 -65 10 l-45 3 50
-14 c48 -13 85 -44 85 -69 -1 -6 -7 1 -15 15 -19 35 -34 40 -145 45 l-95 3 72
-13 c113 -22 144 -49 142 -121 l-2 -40 -7 44 c-10 64 -67 101 -155 101 -16 0
-45 9 -62 20 -20 12 -33 15 -33 8 0 -6 -3 -8 -7 -4 -4 4 3 16 16 26 17 12 35
16 62 13 37 -5 102 15 93 29 -3 4 8 14 23 22 15 8 41 31 56 50 29 38 47 46 47
21z m80 -27 c25 -24 55 -49 66 -55 16 -11 15 -11 -9 -3 -63 22 -117 62 -117
87 0 21 10 16 60 -29z m35 15 l18 -28 -21 19 c-12 11 -22 23 -22 28 0 14 7 9
25 -19z m-362 -4 c3 -12 1 -32 -6 -46 -11 -25 -11 -25 -19 -3 -9 23 -1 70 12
70 4 0 10 -9 13 -21z m547 -25 c0 -19 -4 -34 -10 -34 -13 0 -24 45 -16 66 10
25 26 6 26 -32z m-430 -4 c0 -6 -11 -15 -24 -21 -14 -7 -22 -17 -19 -25 6 -16
-40 -29 -64 -18 -16 7 -15 8 4 11 13 3 28 12 35 22 22 30 68 51 68 31z m325
-2 c14 -6 25 -17 25 -25 0 -7 14 -16 31 -20 22 -4 27 -8 17 -14 -22 -15 -58
-10 -65 8 -4 9 -18 27 -32 40 -28 24 -17 30 24 11z m-758 -46 c8 -8 13 -27 11
-42 -1 -15 3 -35 11 -43 19 -23 5 -59 -22 -55 -13 2 -22 10 -22 21 0 20 18 25
23 5 2 -9 0 -8 -7 2 -9 13 -11 12 -11 -3 0 -12 6 -17 18 -15 9 2 17 12 17 23
0 30 -59 29 -63 -2 -2 -12 2 -31 8 -43 9 -18 14 -19 26 -9 13 11 14 9 9 -12
-7 -29 14 -53 42 -47 25 5 29 39 7 55 -16 12 -16 13 -1 13 9 0 18 8 18 18 1
16 2 16 6 0 2 -10 12 -18 21 -18 14 0 15 -2 3 -9 -22 -14 -22 -41 0 -41 11 0
19 7 20 18 0 13 2 14 6 2 4 -8 13 -21 22 -28 14 -12 14 -13 -1 -8 -13 4 -18 0
-19 -17 l0 -22 -9 23 c-11 26 -23 28 -44 7 -12 -13 -13 -21 -4 -41 10 -20 17
-24 37 -19 21 5 23 4 12 -9 -10 -12 -9 -17 9 -26 12 -6 31 -10 43 -8 31 4 32
63 2 63 -11 0 -21 -8 -23 -17 -2 -12 3 -18 15 -18 15 0 16 2 3 10 -13 8 -12
10 3 10 21 0 23 -19 1 -27 -22 -8 -37 11 -29 37 5 16 13 20 33 18 21 -2 30
-11 38 -38 11 -32 44 -56 44 -31 0 16 -18 22 -23 9 -3 -8 -6 -5 -6 5 -1 26 33
17 37 -9 4 -28 -26 -39 -48 -19 -12 11 -20 13 -25 6 -9 -15 -56 -13 -78 4 -16
12 -21 11 -38 -6 -15 -15 -24 -17 -33 -10 -9 7 -16 7 -24 -1 -13 -13 -42 6
-42 28 0 8 -6 14 -14 14 -20 0 -31 19 -18 32 6 6 8 24 5 39 -4 21 -1 30 11 35
14 5 14 8 1 27 -17 24 -20 73 -5 82 6 4 5 13 -2 24 -15 24 -3 53 19 49 21 -4
24 -30 5 -34 -7 -1 -8 0 -2 3 12 5 4 23 -11 23 -5 0 -9 -9 -9 -20 0 -15 7 -20
26 -20 22 0 25 4 22 27 -2 16 -12 32 -24 38 -17 8 -19 14 -10 28 10 16 11 16
15 0 2 -9 10 -23 18 -31z m708 -3 l50 -18 -38 -1 c-41 0 -97 24 -97 41 0 7 7
8 18 4 9 -5 40 -16 67 -26z m-599 -70 c-30 -36 -35 -29 -6 8 11 14 21 33 21
42 1 13 2 13 6 -2 2 -9 -7 -31 -21 -48z m454 51 c0 -5 -2 -10 -4 -10 -3 0 -8
5 -11 10 -3 6 -1 10 4 10 6 0 11 -4 11 -10z m485 -40 c26 -32 27 -44 2 -21
-17 15 -27 34 -26 50 1 21 2 22 6 6 3 -11 11 -27 18 -35z m-210 31 c-6 -5 -19
-11 -30 -13 -16 -3 -15 -5 7 -10 15 -3 25 -2 23 2 -3 5 2 10 10 14 22 8 25 -7
7 -29 -11 -13 -32 -21 -62 -23 -107 -8 -160 -42 -160 -103 0 -16 -5 -29 -11
-29 -22 0 -1 73 29 103 22 22 46 32 103 43 l74 14 -97 -4 c-101 -3 -123 -11
-138 -51 -7 -16 -9 -17 -9 -3 -1 28 39 57 88 63 69 10 72 13 13 14 -29 1 -63
-4 -75 -11 -20 -10 -21 -10 -9 5 11 13 37 17 120 20 59 1 111 4 117 5 6 1 6
-1 0 -7z m-679 -46 c-4 -15 -13 -25 -24 -25 -16 1 -16 1 1 11 9 5 17 20 17 31
0 12 3 19 6 15 4 -3 4 -18 0 -32z m743 -28 c-8 -18 -12 -40 -10 -51 2 -12 -1
-16 -9 -11 -7 4 -10 19 -7 32 l5 25 -21 -21 c-18 -17 -19 -24 -9 -46 17 -36
14 -55 -3 -25 -22 38 -18 57 20 99 19 21 36 45 36 52 1 8 3 6 6 -4 3 -10 -1
-33 -8 -50z m121 -5 c-1 -15 -40 41 -40 57 0 9 8 3 20 -17 11 -18 20 -36 20
-40z m-760 31 c18 -38 19 -61 4 -81 -10 -14 -11 -13 -7 10 3 16 -1 36 -11 50
-9 12 -16 28 -16 35 0 22 16 14 30 -14z m587 -31 c-26 -26 -47 -55 -47 -65 0
-9 -4 -17 -10 -17 -15 0 -12 22 5 47 15 21 14 22 -26 18 -60 -6 -81 -29 -74
-80 l5 -40 -17 33 c-16 31 -16 33 3 59 20 27 93 55 142 55 13 0 30 10 39 24 9
14 18 22 21 19 3 -3 -15 -27 -41 -53z m-621 -29 c-2 -67 -16 -82 -16 -17 -1
40 -3 46 -11 31 -6 -11 -9 -31 -6 -46 3 -15 2 -33 -4 -41 -17 -27 -10 63 8
107 21 50 31 38 29 -34z m722 40 c16 -44 21 -124 8 -116 -4 3 -6 20 -3 38 3
20 0 40 -8 52 -13 17 -14 17 -9 -2 3 -11 1 -31 -4 -45 -7 -19 -9 -9 -10 43 -1
37 2 67 6 67 4 0 13 -17 20 -37z m16 21 c3 -8 2 -12 -4 -9 -6 3 -10 10 -10 16
0 14 7 11 14 -7z m-774 -4 c0 -5 -5 -10 -11 -10 -5 0 -7 5 -4 10 3 6 8 10 11
10 2 0 4 -4 4 -10z m128 -16 c39 -6 125 -34 139 -46 11 -8 14 -24 10 -51 -5
-39 -13 -55 -22 -46 -2 3 0 20 5 38 7 26 5 36 -11 52 -18 18 -35 22 -89 21
-40 0 -42 -1 -37 -16 7 -17 -13 -76 -25 -76 -11 0 -9 11 6 40 11 19 12 29 3
45 -6 11 -11 23 -12 27 0 3 -3 10 -7 14 -15 14 -8 26 8 13 9 -7 23 -14 32 -15z
m40 -79 c-2 -12 -7 -7 -15 16 -12 30 -11 32 3 17 9 -8 14 -23 12 -33z m42 -4
c0 -9 -10 -27 -21 -41 -22 -27 -22 -22 0 22 13 25 12 30 -5 50 l-19 23 23 -19
c12 -11 22 -26 22 -35z m377 31 c-21 -23 -21 -36 -1 -67 9 -14 12 -25 6 -25
-14 0 -41 61 -34 79 5 14 4 14 -12 2 -10 -8 -15 -23 -13 -33 3 -10 1 -18 -4
-18 -5 0 -9 11 -9 24 0 26 23 51 39 42 5 -4 12 -2 16 4 3 5 11 10 17 10 6 0 4
-8 -5 -18z m-345 -17 c9 -20 9 -28 -1 -38 -10 -9 -11 -8 -5 6 4 11 0 25 -11
37 -11 12 -13 20 -6 20 6 0 17 -11 23 -25z m577 -99 c6 -7 9 -21 5 -30 -8 -20
-44 -21 -44 -1 0 8 5 15 11 15 5 0 7 -4 4 -10 -3 -5 -2 -10 4 -10 18 0 21 17
5 31 -12 10 -18 9 -31 -4 -33 -33 9 -68 59 -49 26 10 28 9 17 -5 -10 -11 -25
-14 -55 -10 -24 2 -47 0 -52 -5 -15 -15 -43 3 -40 26 3 24 29 29 36 7 3 -10 0
-12 -12 -8 -9 4 -16 2 -16 -4 0 -6 8 -9 18 -7 23 4 22 42 -1 46 -23 5 -47 -15
-47 -39 0 -18 -1 -18 -18 -1 -16 16 -17 17 -1 24 9 4 20 11 24 17 3 6 21 11
40 11 19 0 37 5 40 10 9 14 41 12 54 -4z m-420 -3 c15 15 46 -15 38 -37 -9
-22 -37 -20 -37 2 0 13 2 14 9 3 6 -9 11 -10 15 -2 10 16 -2 31 -19 24 -17 -6
-20 -49 -5 -58 18 -11 62 24 55 43 -3 9 -3 13 1 10 3 -4 20 0 36 8 27 14 32
14 53 0 15 -10 26 -12 30 -6 3 6 15 10 26 10 15 0 20 -6 17 -22 -3 -24 -20
-28 -27 -7 -2 7 1 9 8 5 6 -4 11 -2 11 4 0 17 -24 6 -28 -13 -5 -24 33 -40 61
-26 21 11 21 11 4 -7 -14 -15 -22 -17 -46 -7 -16 6 -35 7 -42 3 -18 -12 -39
-1 -39 21 0 12 7 19 18 18 10 0 12 -3 5 -6 -7 -2 -13 -9 -13 -14 0 -15 27 -10
33 5 6 15 -7 30 -33 38 -19 7 -52 -10 -45 -23 4 -5 -1 -9 -9 -9 -9 0 -16 -5
-16 -10 0 -16 -51 -33 -63 -21 -6 6 -16 5 -28 -2 -15 -9 -24 -7 -49 11 -17 13
-35 20 -40 17 -18 -11 -11 1 14 24 22 21 24 21 20 4 -3 -11 3 -26 16 -38 19
-18 22 -18 38 -2 12 13 14 22 6 34 -13 21 -28 19 -32 -4 -2 -14 -1 -15 6 -4 6
8 12 9 16 3 8 -13 -10 -26 -24 -17 -14 9 -12 42 3 48 6 2 19 1 28 -4 9 -5 21
-3 28 4z m-309 -18 c7 -8 20 -15 29 -15 12 0 13 -2 3 -9 -10 -6 -10 -10 2 -20
18 -15 52 -6 60 16 9 23 -11 41 -26 24 -11 -11 -10 -13 5 -8 17 7 24 -7 8 -17
-11 -7 -35 20 -27 32 7 12 134 14 141 2 3 -5 -9 -6 -28 -3 -23 3 -37 0 -46
-11 -14 -17 -7 -36 15 -36 20 0 18 18 -3 23 -14 4 -12 5 5 6 25 1 29 -20 7
-39 -12 -10 -18 -10 -29 -1 -11 9 -19 9 -35 -1 -18 -11 -26 -10 -51 4 -21 12
-30 13 -35 5 -3 -7 -3 -2 -1 10 5 26 -8 39 -44 46 -22 4 -21 4 6 6 17 0 37 -6
44 -14z m-320 -45 c0 -5 -5 -10 -11 -10 -5 0 -7 5 -4 10 3 6 8 10 11 10 2 0 4
-4 4 -10z m1245 0 c3 -5 1 -10 -4 -10 -6 0 -11 5 -11 10 0 6 2 10 4 10 3 0 8
-4 11 -10z"/>
<path d="M350 2342 c0 -24 19 -42 46 -42 32 0 47 22 30 45 -9 12 -15 15 -20 7
-4 -7 -2 -12 4 -12 6 0 8 -5 4 -11 -4 -7 -10 -7 -16 -1 -6 6 -17 8 -26 4 -11
-4 -14 -1 -9 11 3 9 2 17 -3 17 -6 0 -10 -8 -10 -18z"/>
<path d="M313 2304 c-4 -10 0 -22 10 -29 10 -7 17 -18 17 -26 0 -11 -2 -11
-10 1 -11 18 -25 7 -17 -15 9 -21 34 -19 47 5 8 15 8 27 -2 47 -16 33 -36 40
-45 17z m14 -16 c-3 -8 -6 -5 -6 6 -1 11 2 17 5 13 3 -3 4 -12 1 -19z"/>
<path d="M377 2270 c3 -11 11 -20 17 -20 6 0 12 9 13 20 1 13 -4 20 -17 20
-13 0 -17 -5 -13 -20z"/>
<path d="M1505 2349 c-6 -8 -4 -10 5 -4 9 6 11 4 6 -4 -5 -7 -14 -10 -21 -7
-8 3 -15 0 -17 -6 -3 -7 -10 -8 -17 -4 -11 7 -11 10 0 17 11 7 10 9 -4 9 -13
0 -18 -6 -15 -22 2 -19 9 -23 37 -23 38 0 64 26 44 46 -8 8 -13 7 -18 -2z"/>
<path d="M1514 2283 c-8 -29 6 -58 27 -58 8 0 15 9 17 20 2 16 1 17 -7 5 -5
-8 -13 -11 -17 -7 -4 4 -3 12 3 18 6 6 9 18 6 25 -4 10 0 12 13 7 12 -4 15 -3
10 5 -14 22 -45 13 -52 -15z"/>
<path d="M1470 2268 c0 -22 16 -24 24 -2 8 21 8 21 -9 21 -8 0 -15 -9 -15 -19z"/>
<path d="M1145 2310 c-3 -5 -2 -10 4 -10 5 0 13 5 16 10 3 6 2 10 -4 10 -5 0
-13 -4 -16 -10z"/>
<path d="M1191 2071 c-10 -6 -9 -10 3 -14 8 -3 18 -2 21 3 8 13 -9 20 -24 11z"/>
<path d="M1025 2010 c-3 -6 1 -7 9 -4 18 7 21 14 7 14 -6 0 -13 -4 -16 -10z"/>
<path d="M320 1664 c0 -21 49 -106 69 -118 23 -14 10 31 -15 55 -15 13 -33 38
-40 54 -10 24 -13 26 -14 9z"/>
<path d="M1312 1768 c3 -7 20 -23 39 -35 19 -13 40 -27 47 -33 9 -8 12 -6 12
10 0 12 -4 19 -9 15 -6 -3 -13 1 -18 8 -12 21 -76 53 -71 35z"/>
<path d="M1538 1673 c-4 -17 -21 -47 -38 -66 -16 -19 -30 -43 -30 -53 1 -16 5
-14 26 11 38 46 56 83 52 113 -3 27 -3 27 -10 -5z"/>
<path d="M940 1707 c0 -17 20 -37 37 -37 7 0 13 5 13 12 0 6 -3 9 -6 5 -8 -8
-33 16 -27 26 2 4 -1 7 -6 7 -6 0 -11 -6 -11 -13z"/>
<path d="M854 1609 c-99 -28 -187 -132 -200 -235 -20 -162 113 -314 276 -314
67 0 132 25 185 72 71 62 90 106 90 208 0 75 -3 91 -27 132 -69 117 -202 173
-324 137z m192 -30 c51 -24 100 -71 127 -123 26 -51 28 -163 5 -217 -71 -165
-287 -211 -420 -91 -51 46 -79 102 -85 172 -19 201 189 345 373 259z"/>
<path d="M862 1582 c-263 -84 -226 -464 47 -489 133 -12 244 71 271 203 22
106 -35 221 -132 267 -72 34 -122 39 -186 19z m79 -25 c-13 -13 -26 -3 -16 12
3 6 11 8 17 5 6 -4 6 -10 -1 -17z m-81 -7 c0 -5 -7 -10 -15 -10 -8 0 -15 5
-15 10 0 6 7 10 15 10 8 0 15 -4 15 -10z m174 -11 c-3 -5 -10 -7 -15 -3 -5 3
-7 10 -3 15 3 5 10 7 15 3 5 -3 7 -10 3 -15z m-12 -25 c78 -39 112 -99 106
-185 -8 -104 -76 -170 -183 -177 -48 -3 -70 0 -102 17 -80 40 -121 119 -107
207 5 38 4 43 -10 38 -11 -4 -16 -1 -16 10 0 18 15 21 25 5 4 -6 21 7 42 30
19 23 44 46 56 53 57 30 132 31 189 2z m-242 -20 c0 -8 -4 -12 -10 -9 -5 3
-10 10 -10 16 0 5 5 9 10 9 6 0 10 -7 10 -16z m330 6 c0 -5 -7 -10 -16 -10 -8
0 -12 5 -9 10 3 6 10 10 16 10 5 0 9 -4 9 -10z m50 -75 c0 -8 -4 -15 -9 -15
-13 0 -22 16 -14 24 11 11 23 6 23 -9z m-454 -92 c-10 -10 -19 5 -10 18 6 11
8 11 12 0 2 -7 1 -15 -2 -18z m463 -2 c-15 -5 -22 6 -14 19 6 9 10 9 16 -1 5
-8 4 -15 -2 -18z m-439 -76 c0 -8 -4 -15 -10 -15 -5 0 -10 7 -10 15 0 8 5 15
10 15 6 0 10 -7 10 -15z m430 -6 c0 -5 -4 -9 -10 -9 -5 0 -10 7 -10 16 0 8 5
12 10 9 6 -3 10 -10 10 -16z m-380 -64 c0 -8 -4 -15 -10 -15 -5 0 -10 7 -10
15 0 8 5 15 10 15 6 0 10 -7 10 -15z m330 -6 c0 -5 -4 -9 -10 -9 -5 0 -10 7
-10 16 0 8 5 12 10 9 6 -3 10 -10 10 -16z m-250 -49 c0 -5 -7 -10 -16 -10 -8
0 -12 5 -9 10 3 6 10 10 16 10 5 0 9 -4 9 -10z m170 0 c0 -5 -4 -10 -10 -10
-5 0 -10 5 -10 10 0 6 5 10 10 10 6 0 10 -4 10 -10z m-90 -20 c0 -5 -4 -10
-10 -10 -5 0 -10 5 -10 10 0 6 5 10 10 10 6 0 10 -4 10 -10z"/>
<path d="M889 1521 c-84 -17 -144 -92 -144 -182 0 -99 70 -169 174 -177 121
-9 208 77 199 195 -9 111 -115 186 -229 164z m-8 -44 c-13 -13 -26 -3 -16 12
3 6 11 8 17 5 6 -4 6 -10 -1 -17z m65 -13 c-5 -13 -10 -14 -18 -6 -6 6 -8 18
-4 28 5 13 10 14 18 6 6 -6 8 -18 4 -28z m64 16 c0 -5 -4 -10 -10 -10 -5 0
-10 5 -10 10 0 6 5 10 10 10 6 0 10 -4 10 -10z m-166 -26 c9 -3 16 -13 16 -21
0 -20 -34 -12 -38 10 -4 19 -1 20 22 11z m56 -14 c0 -5 -4 -10 -10 -10 -5 0
-10 5 -10 10 0 6 5 10 10 10 6 0 10 -4 10 -10z m90 0 c0 -5 -4 -10 -9 -10 -6
0 -13 5 -16 10 -3 6 1 10 9 10 9 0 16 -4 16 -10z m60 -4 c0 -14 -29 -31 -38
-22 -2 3 -2 12 1 21 8 19 37 20 37 1z m-124 -49 c-7 -27 -52 -45 -69 -28 -8 8
-7 11 2 11 7 0 9 5 6 10 -3 6 -2 10 4 10 5 0 13 -4 16 -10 3 -5 11 -10 18 -10
8 0 8 3 -1 12 -14 14 -16 42 -2 33 6 -3 10 -1 10 6 0 10 3 10 11 2 6 -6 9 -23
5 -36z m-126 12 c0 -5 -4 -9 -10 -9 -5 0 -10 7 -10 16 0 8 5 12 10 9 6 -3 10
-10 10 -16z m160 9 c0 -10 3 -9 9 1 5 8 11 9 15 3 3 -6 2 -13 -4 -17 -5 -3
-10 -11 -10 -18 0 -8 3 -8 12 1 17 17 31 15 24 -3 -3 -8 0 -15 6 -15 7 0 6 -5
-2 -15 -9 -10 -9 -15 -1 -15 13 0 14 -10 1 -30 -7 -12 -12 -12 -22 -2 -6 6
-17 12 -22 12 -6 0 -5 -5 2 -12 17 -17 15 -25 -8 -31 -14 -4 -20 0 -20 11 0
13 -3 12 -15 -4 -8 -10 -15 -14 -15 -7 0 7 -7 10 -15 7 -18 -7 -20 7 -2 25 10
11 8 11 -12 1 -21 -11 -23 -10 -18 4 4 9 2 16 -3 16 -21 0 -9 18 15 22 17 4
26 0 30 -12 3 -10 14 -20 23 -22 19 -5 45 15 34 26 -3 4 0 11 8 16 13 8 12 10
-2 10 -10 0 -18 5 -18 11 0 5 -4 8 -9 5 -4 -3 -6 6 -3 19 4 26 22 35 22 13z
m130 -8 c0 -5 -4 -10 -10 -10 -5 0 -10 5 -10 10 0 6 5 10 10 10 6 0 10 -4 10
-10z m-250 -15 c0 -8 -4 -15 -10 -15 -5 0 -10 7 -10 15 0 8 5 15 10 15 6 0 10
-7 10 -15z m210 -5 c0 -5 -4 -10 -9 -10 -6 0 -13 5 -16 10 -3 6 1 10 9 10 9 0
16 -4 16 -10z m-225 -29 c7 -12 -31 -25 -45 -16 -6 4 -8 11 -5 16 8 12 42 12
50 0z m262 -8 c5 -15 -21 -23 -38 -12 -12 8 -12 10 1 19 17 11 32 8 37 -7z
m-247 -43 c0 -5 -4 -10 -10 -10 -5 0 -10 5 -10 10 0 6 5 10 10 10 6 0 10 -4
10 -10z m210 0 c0 -5 -7 -10 -15 -10 -8 0 -15 5 -15 10 0 6 7 10 15 10 8 0 15
-4 15 -10z m-255 -9 c3 -5 1 -12 -5 -16 -5 -3 -10 1 -10 9 0 18 6 21 15 7z
m295 -12 c0 -5 -4 -9 -10 -9 -5 0 -10 7 -10 16 0 8 5 12 10 9 6 -3 10 -10 10
-16z m-242 -26 c-2 -10 -11 -19 -20 -21 -12 -2 -15 2 -11 17 7 25 36 28 31 4z
m196 -9 c3 -9 -1 -14 -14 -14 -13 0 -20 7 -20 20 0 22 25 18 34 -6z m-144 -4
c0 -5 -4 -10 -10 -10 -5 0 -10 5 -10 10 0 6 5 10 10 10 6 0 10 -4 10 -10z m85
0 c-3 -5 -10 -10 -16 -10 -5 0 -9 5 -9 10 0 6 7 10 16 10 8 0 12 -4 9 -10z
m-41 -16 c3 -9 3 -20 0 -25 -9 -15 -34 10 -27 27 7 19 19 18 27 -2z m-64 -24
c0 -5 -4 -10 -10 -10 -5 0 -10 5 -10 10 0 6 5 10 10 10 6 0 10 -4 10 -10z
m120 -6 c0 -8 -4 -12 -10 -9 -5 3 -10 10 -10 16 0 5 5 9 10 9 6 0 10 -7 10
-16z"/>
<path d="M440 1250 c-13 -8 -13 -10 2 -10 9 0 20 5 23 10 8 13 -5 13 -25 0z"/>
<path d="M1470 1128 c0 -9 11 -30 25 -46 14 -17 32 -45 40 -64 8 -19 14 -26
15 -15 0 26 -24 77 -54 112 -19 22 -25 26 -26 13z"/>
<path d="M1437 1003 c-6 -10 20 -103 29 -103 2 0 4 17 4 38 0 40 -22 83 -33
65z"/>
<path d="M1368 814 c-5 -4 -8 -23 -8 -43 1 -30 2 -33 11 -18 11 19 8 73 -3 61z"/>
<path d="M406 983 c-14 -31 -15 -47 -8 -74 10 -33 10 -33 11 -6 1 15 7 40 15
55 7 15 10 35 7 46 -6 15 -10 11 -25 -21z"/>
<path d="M426 929 c-3 -16 0 -53 6 -82 l12 -52 8 45 c9 47 3 106 -11 114 -5 3
-11 -8 -15 -25z m24 -30 c0 -11 -4 -18 -10 -14 -5 3 -7 12 -3 20 7 21 13 19
13 -6z"/>
<path d="M880 999 c0 -5 3 -8 8 -6 9 6 33 -19 25 -27 -4 -3 -1 -6 5 -6 16 0
15 23 0 38 -15 15 -38 16 -38 1z"/>
<path d="M1470 410 c0 -11 5 -20 10 -20 6 0 10 9 10 20 0 11 -4 20 -10 20 -5
0 -10 -9 -10 -20z"/>
<path d="M1447 373 c-14 -13 -7 -43 11 -43 13 0 14 2 3 9 -8 5 -9 11 -3 15 6
3 13 2 17 -3 3 -6 12 -8 20 -4 11 4 13 1 9 -11 -3 -9 -1 -16 5 -16 15 0 14 33
-1 48 -13 13 -50 16 -61 5z"/>
<path d="M655 621 c-3 -5 -2 -12 3 -15 5 -3 9 1 9 9 0 17 -3 19 -12 6z"/>
<path d="M317 454 c-4 -4 -7 -14 -7 -23 0 -14 2 -14 10 -1 5 8 12 11 16 7 4
-4 -2 -18 -14 -30 -24 -25 -20 -37 9 -37 33 0 40 82 8 88 -8 1 -18 0 -22 -4z"/>
<path d="M370 415 c0 -8 7 -15 15 -15 8 0 15 7 15 15 0 8 -7 15 -15 15 -8 0
-15 -7 -15 -15z"/>
<path d="M360 372 c-21 -17 -20 -59 2 -46 6 4 5 10 -3 16 -10 7 -8 8 8 5 12
-3 24 0 26 7 3 8 9 7 18 -3 9 -9 9 -11 2 -7 -7 4 -13 2 -13 -3 0 -6 7 -11 15
-11 18 0 20 31 3 48 -17 17 -32 15 -58 -6z"/>
<path d="M918 140 c-26 -3 -51 -9 -55 -14 -7 -7 407 2 416 10 6 6 -313 9 -361
4z"/>
<path d="M205 130 c48 -7 426 -2 434 6 2 2 -106 3 -240 3 -145 -1 -224 -5
-194 -9z"/>
<path d="M680 136 c0 -2 7 -7 16 -10 8 -3 12 -2 9 4 -6 10 -25 14 -25 6z"/>
<path d="M1318 133 c7 -3 16 -2 19 1 4 3 -2 6 -13 5 -11 0 -14 -3 -6 -6z"/>
<path d="M778 123 c7 -3 16 -2 19 1 4 3 -2 6 -13 5 -11 0 -14 -3 -6 -6z"/>
</g>
</svg>
